#!OML:ASF H:\LiuWeirdWalks\Patient Classification 1\Patient 1\Session 1\male.ASF
:FULLY-SPECIFIED
:DEGREES
338
root 0.848224 17.8158 25.445 0.0606298 7.12652 -4.64241
lowerback 5.87219 0.0704295 0.214386
upperback 0.658786 0.261975 5.18852
thorax -2.64052 0.156905 5.24635
lowerneck -20.6339 -0.901438 2.35541
upperneck 23.2185 -0.81681 -4.5006
head 10.8784 -0.730631 -2.15044
rclavicle 7.25564e-015 -4.92986e-014
rhumerus -49.0149 -30.0662 -53.7632
rradius 14.4828
rwrist 12.6623
rhand -14.5323 -6.03413
rfingers 7.12502
rthumb 11.6158 -35.6922
lclavicle 7.25564e-015 -4.92986e-014
lhumerus -23.9372 -8.4463 90.9428
lradius 48.6938
lwrist 26.6362
lhand -21.9987 -3.15391
lfingers 7.12502
lthumb 4.41007 26.7802
rfemur -17.666 2.60169 26.4857
rtibia 35.9201
rfoot -9.381 -23.6592
rtoes -1.5533
lfemur -11.5714 -1.8981 -13.8191
ltibia 64.4194
lfoot 1.7772 4.09794
ltoes -17.8056
339
root 0.851061 17.8355 25.7334 0.0457022 7.09884 -4.82208
lowerback 5.62035 0.063541 0.15623
upperback 0.742613 0.238241 5.22846
thorax -2.41087 0.142099 5.3211
lowerneck -20.6296 -0.858495 2.52356
upperneck 23.1988 -0.788884 -4.58842
head 10.8698 -0.71396 -2.20592
rclavicle 2.25621e-014 5.56597e-015
rhumerus -46.1851 -28.7689 -56.6534
rradius 15.1024
rwrist 10.5816
rhand -15.0807 -6.00207
rfingers 7.12502
rthumb 11.0869 -35.6892
lclavicle 2.25621e-014 5.56597e-015
lhumerus -24.6814 -8.61721 91.2058
lradius 47.5277
lwrist 25.6529
lhand -21.5488 -3.20413
lfingers 7.12502
lthumb 4.84449 26.7205
rfemur -16.3408 2.60313 26.859
rtibia 35.4504
rfoot -10.0487 -23.8113
rtoes -1.74451
lfemur -13.3713 -1.54677 -13.68
ltibia 64.4784
lfoot -0.636862 5.52506
ltoes -18.0791
340
root 0.856827 17.8495 26.0206 0.0450304 7.08748 -4.99957
lowerback 5.35952 0.0310871 0.117525
upperback 0.813462 0.181833 5.26299
thorax -2.18648 0.110722 5.38143
lowerneck -20.6073 -0.793834 2.72291
upperneck 23.1945 -0.73352 -4.70008
head 10.8645 -0.684877 -2.27134
rclavicle -4.47266e-015 3.33958e-014
rhumerus -43.4785 -27.3351 -59.3395
rradius 15.7597
rwrist 8.67248
rhand -15.6824 -5.92749
rfingers 7.12502
rthumb 10.5066 -35.6449
lclavicle -4.47266e-015 3.33958e-014
lhumerus -25.4905 -8.74264 91.4415
lradius 46.3735
lwrist 24.5078
lhand -21.0378 -3.43879
lfingers 7.12502
lthumb 5.33786 26.474
rfemur -15.0568 2.45619 27.2056
rtibia 35.0087
rfoot -10.7422 -23.8397
rtoes -1.93274
lfemur -15.1302 -1.20333 -13.5907
ltibia 64.2829
lfoot -2.81721 7.00379
ltoes -18.2931
341
root 0.864926 17.8575 26.3057 0.0719101 7.06514 -5.13902
lowerback 5.13068 0.208302 0.440241
upperback 0.861291 0.423603 5.11754
thorax -2.02782 0.226611 5.02459
lowerneck -20.7532 -1.00414 2.6038
upperneck 23.3 -1.04485 -4.49844
head 10.9193 -0.812305 -2.22906
rclavicle -1.33683e-014 -5.00937e-014
rhumerus -41.2999 -26.3625 -61.5369
rradius 16.5737
rwrist 6.76804
rhand -16.2834 -5.85373
rfingers 7.12502
rthumb 9.92677 -35.5997
lclavicle -1.33683e-014 -5.00937e-014
lhumerus -26.2488 -9.61391 91.8154
lradius 45.1609
lwrist 23.2905
lhand -20.4712 -3.7892
lfingers 7.12502
lthumb 5.88495 26.1091
rfemur -13.8305 2.23092 27.4875
rtibia 34.6024
rfoot -11.424 -23.7844
rtoes -2.11971
lfemur -16.8631 -0.854717 -13.5885
ltibia 63.8517
lfoot -4.74742 8.49446
ltoes -18.4324
342
root 0.875693 17.8598 26.5894 0.11147 7.02781 -5.24152
lowerback 4.91987 0.406237 0.772188
upperback 0.910316 0.692172 4.95463
thorax -1.87581 0.356582 4.64538
lowerneck -20.9652 -1.22108 2.47567
upperneck 23.4536 -1.36414 -4.29212
head 11.0058 -0.943358 -2.18729
rclavicle -5.11871e-015 -1.03368e-014
rhumerus -39.2209 -25.4022 -63.4971
rradius 17.4528
rwrist 4.93178
rhand -16.8743 -5.70602
rfingers 7.12502
rthumb 9.35662 -35.4784
lclavicle -5.11871e-015 -1.03368e-014
lhumerus -26.9944 -10.5322 92.212
lradius 43.9225
lwrist 22.0077
lhand -19.8734 -4.14296
lfingers 7.12502
lthumb 6.46203 25.7385
rfemur -12.6377 1.94699 27.7033
rtibia 34.2268
rfoot -12.1321 -23.67
rtoes -2.23635
lfemur -18.5481 -0.512847 -13.6735
ltibia 63.1907
lfoot -6.42146 9.94988
ltoes -18.4814
343
root 0.885198 17.8568 26.8717 0.159567 6.89678 -5.33718
lowerback 4.73685 0.614471 1.01948
upperback 0.950983 0.970849 4.81817
thorax -1.7459 0.49304 4.34431
lowerneck -21.1315 -1.40205 2.39543
upperneck 23.5744 -1.63758 -4.12819
head 11.0736 -1.05395 -2.16098
rclavicle 6.41081e-015 -2.62396e-014
rhumerus -37.2119 -24.3311 -65.2795
rradius 18.4193
rwrist 3.09995
rhand -17.3926 -5.56004
rfingers 7.12502
rthumb 8.85654 -35.3542
lclavicle 6.41081e-015 -2.62396e-014
lhumerus -27.7776 -11.3613 92.6021
lradius 42.6961
lwrist 20.7149
lhand -19.2502 -4.39454
lfingers 7.12502
lthumb 7.06366 25.4676
rfemur -11.4651 1.81552 27.9202
rtibia 33.8539
rfoot -12.8131 -23.616
rtoes -2.28735
lfemur -20.183 -0.0975477 -13.7752
ltibia 62.3033
lfoot -7.84208 11.3017
ltoes -18.4129
344
root 0.895676 17.8506 27.1528 0.216958 6.72132 -5.37276
lowerback 4.60952 0.920336 1.31774
upperback 1.00989 1.38193 4.63966
thorax -1.63054 0.695809 3.9643
lowerneck -21.4696 -1.69262 2.13999
upperneck 23.7402 -2.03825 -3.85457
head 11.191 -1.22401 -2.08924
rclavicle 5.96354e-015 7.15625e-015
rhumerus -35.3604 -23.4701 -66.7352
rradius 19.5154
rwrist 1.24849
rhand -17.7981 -5.45462
rfingers 7.12502
rthumb 8.46514 -35.265
lclavicle 5.96354e-015 7.15625e-015
lhumerus -28.4754 -12.4602 93.1002
lradius 41.4241
lwrist 19.4968
lhand -18.6162 -4.55607
lfingers 7.12502
lthumb 7.67562 25.2846
rfemur -10.2747 1.73375 28.0646
rtibia 33.4319
rfoot -13.4312 -23.5722
rtoes -2.36761
lfemur -21.7413 0.327956 -13.9679
ltibia 61.1665
lfoot -9.01177 12.5621
ltoes -18.3021
345
root 0.903258 17.844 27.4337 0.274569 6.44354 -5.39925
lowerback 4.51231 1.05932 1.20643
upperback 1.06979 1.55506 4.6275
thorax -1.52739 0.782123 4.00594
lowerneck -21.6675 -1.70793 2.18898
upperneck 23.7924 -2.07073 -3.88464
head 11.2462 -1.23871 -2.11836
rclavicle 2.30093e-014 -4.77083e-015
rhumerus -33.3137 -22.0113 -68.2284
rradius 20.6442
rwrist -0.610163
rhand -18.1009 -5.35976
rfingers 7.12502
rthumb 8.17296 -35.1817
lclavicle 2.30093e-014 -4.77083e-015
lhumerus -29.2382 -12.8237 93.4608
lradius 40.1673
lwrist 18.2521
lhand -17.9638 -4.64968
lfingers 7.12502
lthumb 8.30525 25.1671
rfemur -9.03613 1.86557 28.2318
rtibia 32.9098
rfoot -13.9397 -23.6475
rtoes -2.47702
lfemur -23.1976 0.820715 -14.1566
ltibia 59.7604
lfoot -9.91837 13.688
ltoes -18.1669
346
root 0.90905 17.8397 27.716 0.33192 6.10127 -5.443
lowerback 4.4015 1.04681 0.799031
upperback 1.12837 1.51521 4.75203
thorax -1.41647 0.762926 4.37159
lowerneck -21.7075 -1.50345 2.47197
upperneck 23.7295 -1.81001 -4.14448
head 11.2337 -1.12949 -2.22002
rclavicle 6.01324e-015 4.69132e-014
rhumerus -31.1962 -20.0665 -69.6902
rradius 21.8068
rwrist -2.40704
rhand -18.3079 -5.22484
rfingers 7.12502
rthumb 7.97316 -35.0545
lclavicle 6.01324e-015 4.69132e-014
lhumerus -30.0667 -12.5679 93.6929
lradius 38.9383
lwrist 17.011
lhand -17.3432 -4.77802
lfingers 7.12502
lthumb 8.90413 25.0141
rfemur -7.7271 2.13574 28.4441
rtibia 32.2514
rfoot -14.3408 -23.8123
rtoes -2.68184
lfemur -24.5264 1.34196 -14.3141
ltibia 58.0633
lfoot -10.5838 14.7081
ltoes -17.9892
347
root 0.915309 17.8385 27.999 0.417913 5.75014 -5.42171
lowerback 4.28092 0.923099 0.158584
upperback 1.17255 1.31897 4.9283
thorax -1.30794 0.665383 4.93403
lowerneck -21.6386 -1.15341 2.90795
upperneck 23.6098 -1.35852 -4.5409
head 11.1866 -0.937387 -2.36495
rclavicle -1.98288e-014 -3.4191e-014
rhumerus -29.1153 -17.8182 -71.0675
rradius 23.0297
rwrist -4.15898
rhand -18.4239 -5.08069
rfingers 7.12502
rthumb 7.86117 -34.9145
lclavicle -1.98288e-014 -3.4191e-014
lhumerus -30.9389 -11.8985 93.8216
lradius 37.7282
lwrist 15.7981
lhand -16.7665 -4.92107
lfingers 7.12502
lthumb 9.46066 24.8466
rfemur -6.36586 2.398 28.5902
rtibia 31.4495
rfoot -14.6078 -24.0013
rtoes -3.01346
lfemur -25.7398 1.82234 -14.5431
ltibia 56.0637
lfoot -10.9977 15.6645
ltoes -17.8445
